# xmcd
# 
# Track frame offsets:
#     150
#     12363
#     25275
#     38558
#     50430
#     63643
#     78908
#     93165
#     105860
#     123030
#     136768
#     148410
#     160278
#     173203
#     185480
#     197550
#     211813
# 
# Disc length: 3018
# 
# Revision: 3
# Processed by: cddbd v1.5.2PL0 Copyright (c) Steve Scherf et al.
# Submitted via: fre:ac v1.0.31
# 
DISCID=db0bc811
DTITLE=Columbia Blues - Sittin' In With Lightnin' Hopkins
DYEAR=1993
DGENRE=
TTITLE0=Contrary Mary
TTITLE1=Why Did You Get Mad At Me?
TTITLE2=Down to the River
TTITLE3=I'm Beggin' You
TTITLE4=Bald Headed Woman
TTITLE5=Talking-Lightnin' and Bobby Shad-What Kind of Heart Have You
TTITLE6=Back Home Boogie
TTITLE7=New York Boogie
TTITLE8=Broken Hearted Blues
TTITLE9=Long Way from Texas
TTITLE10=My Heart to Weep
TTITLE11=Tap Dance Boogie
TTITLE12=Home in the Woods
TTITLE13=So Sorry
TTITLE14=Fannie Mae
TTITLE15=Cemetery Blues
TTITLE16=Happy New Year
EXTD=Reissue by Sony 1993\nJK 53626
EXTT0=
EXTT1=
EXTT2=
EXTT3=
EXTT4=
EXTT5=
EXTT6=
EXTT7=
EXTT8=
EXTT9=
EXTT10=
EXTT11=
EXTT12=
EXTT13=
EXTT14=
EXTT15=
EXTT16=
PLAYORDER=
